<?xml version="1.0" encoding="utf-8"?>
<!-- Generator: Adobe Illustrator 30.2.1, SVG Export Plug-In . SVG Version: 9.03 Build 0)  -->
<svg version="1.1" id="Layer_1" xmlns="http://www.w3.org/2000/svg" xmlns:xlink="http://www.w3.org/1999/xlink" x="0px" y="0px"
	 viewBox="0 0 300 300" style="enable-background:new 0 0 300 300;" xml:space="preserve">
<style type="text/css">
	.st0{fill:#CEA871;}
</style>
<path class="st0" d="M150,53.27c53.32,0,96.7,43.38,96.7,96.7c0,53.32-43.38,96.7-96.7,96.7c-53.32,0-96.7-43.38-96.7-96.7
	C53.3,96.65,96.68,53.27,150,53.27z M150,238.66c48.91,0,88.7-39.79,88.7-88.7c0-48.91-39.79-88.7-88.7-88.7
	c-48.91,0-88.7,39.79-88.7,88.7C61.3,198.87,101.09,238.66,150,238.66z M110.89,90.78c-1.36,1.74-1.04,4.26,0.7,5.61l68.54,53.31
	l-69.22,53.84c-1.74,1.36-2.06,3.87-0.7,5.61c1.36,1.74,3.87,2.06,5.61,0.7l73.28-57c0.97-0.76,1.54-1.92,1.54-3.16
	c0-1.23-0.57-2.4-1.54-3.16l-72.6-56.47c-0.73-0.57-1.59-0.84-2.45-0.84C112.85,89.23,111.67,89.76,110.89,90.78z"/>
</svg>
