<?xml version="1.0" encoding="utf-8"?>
<!-- Generator: Adobe Illustrator 30.2.1, SVG Export Plug-In . SVG Version: 9.03 Build 0)  -->
<svg version="1.1" id="Layer_1" xmlns="http://www.w3.org/2000/svg" xmlns:xlink="http://www.w3.org/1999/xlink" x="0px" y="0px"
	 viewBox="0 0 300 300" style="enable-background:new 0 0 300 300;" xml:space="preserve">
<style type="text/css">
	.st0{fill:#CEA871;}
</style>
<path class="st0" d="M150,246.66c-53.32,0-96.7-43.38-96.7-96.7c0-53.32,43.38-96.7,96.7-96.7c53.32,0,96.7,43.38,96.7,96.7
	C246.7,203.29,203.32,246.66,150,246.66z M150,61.27c-48.91,0-88.7,39.79-88.7,88.7c0,48.91,39.79,88.7,88.7,88.7
	c48.91,0,88.7-39.79,88.7-88.7C238.7,101.06,198.91,61.27,150,61.27z M189.11,209.16c1.36-1.74,1.04-4.26-0.7-5.61l-68.54-53.31
	l69.22-53.84c1.74-1.36,2.06-3.87,0.7-5.61c-1.36-1.74-3.87-2.06-5.61-0.7l-73.28,57c-0.97,0.76-1.54,1.92-1.54,3.16
	c0,1.23,0.57,2.4,1.54,3.16l72.6,56.47c0.73,0.57,1.59,0.84,2.45,0.84C187.15,210.7,188.33,210.17,189.11,209.16z"/>
</svg>
