<?xml version="1.0" encoding="utf-8"?>
<!-- Generator: Adobe Illustrator 30.2.1, SVG Export Plug-In . SVG Version: 9.03 Build 0)  -->
<svg version="1.1" id="Layer_1" xmlns="http://www.w3.org/2000/svg" xmlns:xlink="http://www.w3.org/1999/xlink" x="0px" y="0px"
	 viewBox="0 0 1446.78 450.68" style="enable-background:new 0 0 1446.78 450.68;" xml:space="preserve">
<style type="text/css">
	.st0{fill:#CEA870;}
</style>
<g>
	<g>
		<g>
			<g>
				
					<rect x="603.08" y="32.54" transform="matrix(-1 -1.224647e-16 1.224647e-16 -1 1229.4956 191.1014)" class="st0" width="23.34" height="126.01"/>
				
					<rect x="953.79" y="32.55" transform="matrix(-1 -1.224647e-16 1.224647e-16 -1 1930.91 191.1115)" class="st0" width="23.34" height="126.01"/>
				<polygon class="st0" points="533.4,32.54 493.72,81.55 454.05,32.54 430.72,32.54 430.72,158.56 454.05,158.56 454.05,69.62 
					478.72,100.08 492.07,116.55 495.38,116.55 508.73,100.08 533.4,69.62 533.4,158.56 556.73,158.56 556.73,32.54 				"/>
				<path class="st0" d="M722.93,160.75c-0.62,0-1.23-0.01-1.86-0.03c-18.51-0.49-31.02-5.36-47.63-14.17l10.94-20.61
					c14.07,7.47,23.25,11.09,37.31,11.46c8.72,0.2,16.32-2.03,19.79-5.9c1.21-1.35,2.74-3.72,2.07-8.69
					c-0.95-6.97-6-10.47-21.57-14.86l-10.26-2.24c-12.37-3.47-35.39-9.93-38.7-34.27c-1.45-10.62,1.26-20.1,7.82-27.42
					c8.16-9.1,21.95-14.09,37.78-13.65c18.51,0.49,31.02,5.36,47.63,14.17l-10.94,20.61C741.24,57.7,732.06,54.08,718,53.7
					c-8.73-0.22-16.32,2.03-19.79,5.9c-1.21,1.35-2.74,3.72-2.07,8.69c0.95,6.97,5.99,10.46,21.53,14.85l10.29,2.25
					c12.37,3.47,35.39,9.93,38.7,34.27c1.45,10.62-1.26,20.1-7.82,27.42C751.02,155.82,738,160.75,722.93,160.75z"/>
				<path class="st0" d="M863.44,160.75c-0.62,0-1.23-0.01-1.86-0.03c-18.51-0.49-31.02-5.36-47.63-14.17l10.94-20.61
					c14.07,7.47,23.25,11.09,37.31,11.46c8.72,0.2,16.32-2.03,19.79-5.9c1.21-1.35,2.74-3.72,2.07-8.69
					c-0.95-6.97-6-10.47-21.57-14.86l-10.26-2.24c-12.37-3.47-35.39-9.93-38.7-34.27c-1.45-10.62,1.26-20.1,7.82-27.42
					c8.16-9.1,21.95-14.09,37.78-13.65c18.51,0.49,31.02,5.36,47.63,14.17l-10.94,20.61c-14.07-7.47-23.25-11.09-37.31-11.46
					c-8.73-0.22-16.32,2.03-19.79,5.9c-1.21,1.35-2.74,3.72-2.07,8.69c0.95,6.97,5.99,10.46,21.53,14.85l10.29,2.25
					c12.37,3.47,35.39,9.93,38.7,34.27c1.45,10.62-1.26,20.1-7.82,27.42C891.53,155.82,878.51,160.75,863.44,160.75z"/>
				<polygon class="st0" points="1289.2,32.55 1289.2,118.87 1226.47,32.55 1203.14,32.55 1203.14,158.56 1226.47,158.56 
					1226.47,72.24 1289.2,158.56 1312.54,158.56 1312.54,151 1312.54,32.55 				"/>
				<path class="st0" d="M1090.13,162.22c-36.76,0-66.66-29.9-66.66-66.66c0-36.76,29.9-66.66,66.66-66.66s66.66,29.9,66.66,66.66
					C1156.79,132.31,1126.89,162.22,1090.13,162.22z M1090.13,52.24c-23.89,0-43.32,19.43-43.32,43.32
					c0,23.89,19.43,43.32,43.32,43.32c23.89,0,43.32-19.43,43.32-43.32C1133.45,71.67,1114.02,52.24,1090.13,52.24z"/>
				<g>
					<rect x="432.09" y="208.96" class="st0" width="172.05" height="23.25"/>
					<rect x="432.09" y="311.26" class="st0" width="172.05" height="23.25"/>
					<rect x="455.35" y="260.11" class="st0" width="120.9" height="23.25"/>
				</g>
				<polygon class="st0" points="1289.55,208.96 1289.55,269.41 1227.05,269.41 1227.05,208.96 1203.8,208.96 1203.8,334.51 
					1227.05,334.51 1227.05,292.96 1289.55,292.96 1289.55,334.51 1312.8,334.51 1312.8,208.96 				"/>
				<polygon class="st0" points="1146.6,208.96 1091.69,208.96 1068.41,208.96 1013.32,208.96 1013.32,232.24 1068.41,232.24 
					1068.41,334.68 1091.69,334.68 1091.69,232.24 1146.6,232.24 				"/>
				<path class="st0" d="M956.26,253.05c0-24.48-22.98-44.32-51.34-44.32h-37.76h-1.98h-21.35v126h23.33v-31.64v-5.73h30.48
					l27.99,37.38h29.12l-30.44-40.66C943.06,287.48,956.26,271.6,956.26,253.05z M867.17,228.88h37.76v0.04
					c15.42,0,27.95,10.82,27.95,24.13c0,13.32-12.53,24.13-27.95,24.13h-37.76V228.88z"/>
				<path class="st0" d="M761.69,334.51h25.09l-51.13-125.55H712.4l-51.2,125.55h25.11l9.54-23.39h56.31L761.69,334.51z
					 M705.33,287.87l18.69-45.83l18.67,45.83H705.33z"/>
			</g>
		</g>
		<g>
			<rect y="426.1" class="st0" width="1446.78" height="24.58"/>
			<rect x="66.37" y="372.03" class="st0" width="1314.06" height="24.58"/>
		</g>
	</g>
	<path class="st0" d="M285.76,297.9h-79.82l-69.13-39.91L96.9,188.86v-79.82l39.91-69.13L205.94,0h79.82l69.13,39.91l39.91,69.13
		v79.82l-39.91,69.13L285.76,297.9z M209.06,286.25h73.58l63.72-36.79l36.79-63.72v-73.58l-36.79-63.72l-63.72-36.79h-73.58
		l-63.72,36.79l-36.79,63.72v73.58l36.79,63.72L209.06,286.25z"/>
	<path class="st0" d="M250.82,318.08h-79.82l-69.13-39.91l-39.91-69.13v-79.82l39.91-69.13l69.13-39.91h79.82l69.13,39.91
		l39.91,69.13v79.82l-39.91,69.13L250.82,318.08z M174.12,306.42h73.58l63.72-36.79l36.79-63.72v-73.58l-36.79-63.72l-63.72-36.79
		h-73.58L110.4,68.62l-36.79,63.72v73.58l36.79,63.72L174.12,306.42z"/>
	<path class="st0" d="M285.76,337.94h-79.82l-69.13-39.91L96.9,228.9v-79.82l39.91-69.13l69.13-39.91h79.82l69.13,39.91l39.91,69.13
		v79.82l-39.91,69.13L285.76,337.94z M209.06,326.28h73.58l63.72-36.79l36.79-63.72V152.2l-36.79-63.72l-63.72-36.79h-73.58
		l-63.72,36.79l-36.79,63.72v73.58l36.79,63.72L209.06,326.28z"/>
</g>
</svg>
