<?xml version="1.0" encoding="utf-8"?>
<!-- Generator: Adobe Illustrator 30.2.1, SVG Export Plug-In . SVG Version: 9.03 Build 0)  -->
<svg version="1.1" id="Layer_1" xmlns="http://www.w3.org/2000/svg" xmlns:xlink="http://www.w3.org/1999/xlink" x="0px" y="0px"
	 viewBox="0 0 913.88 1020.76" style="enable-background:new 0 0 913.88 1020.76;" xml:space="preserve">

<g>
	<path fill="currentColor" d="M806.86,325.77H577.99V107.02C577.99,47.91,530.04,0,470.93,0H107.07C47.95,0,0,47.91,0,107.02v363.91
		c0,59.11,47.95,107.02,107.07,107.02h14.78v99.93c0,10.16,8.33,17.11,17.15,17.11c3.72,0,7.49-1.24,10.77-3.92l138.21-113.12h47.91
		V796.7c0,59.11,47.91,107.02,107.02,107.02h183.04l138.16,113.12c3.33,2.73,7.1,3.92,10.77,3.92c8.82,0,17.15-6.94,17.15-17.11
		v-99.93h14.83c59.11,0,107.02-47.91,107.02-107.02V432.79C913.88,373.69,865.97,325.77,806.86,325.77z M884.13,796.7
		c0,42.67-34.59,77.27-77.27,77.27h-44.58v102.95L644.8,880.71l-8.24-6.74H442.95c-42.52,0-77.31-34.8-77.31-77.32v-218.7v-29.76
		h-29.75h-58.57l-8.24,6.75L151.6,651.1V548.19h-44.53c-42.65,0-77.32-34.66-77.32-77.26V107.02c0-42.6,34.67-77.26,77.32-77.26
		h363.86c42.64,0,77.31,34.66,77.31,77.26v218.75v29.76h29.75h228.87c42.68,0,77.27,34.59,77.27,77.26V796.7z"/>
	<path fill="currentColor" d="M393.11,338.07l-78.7-209.03h-50.38L141.98,451.89h50.43l34.22-92.74h124.28l4.47,12.15l13.98,37.84
		l15.77,42.75h50.88l-32.23-85.65L393.11,338.07z M241.06,316.8l32.39-90.51c1.19-3.57,2.73-8.33,4.51-14.18
		c1.79-5.85,3.67-12.3,5.65-19.34c1.94-7.05,3.67-13.59,5.16-19.59c1.19,4.51,2.83,10.26,4.96,17.35c2.08,7.05,4.27,13.94,6.5,20.68
		c2.28,6.75,3.87,11.81,4.76,15.08l32.38,90.51H241.06z"/>
	<path fill="currentColor" d="M682.34,483.72c-18.95-7.09-39.53-10.66-61.75-10.66c-15.62,0-29.9,1.54-42.84,4.61
		c-8.19,1.94-15.87,4.52-23.01,7.69c-3.08,1.39-6,2.83-8.83,4.36c-14.18,7.49-25.34,16.82-33.53,27.88
		c-5.95,8.03-10.11,16.36-12.44,24.94c-1.54,5.7-2.33,11.51-2.33,17.46v18l60.1,22.96l-0.54,1.64
		c-15.68,4.01-28.62,11.2-38.79,21.57c-10.21,10.41-15.32,27.08-15.32,50.04V778h48.65V674.21c0-19.34,5.01-33.43,15.03-42.35
		c10.01-8.93,21.77-13.39,35.26-13.39l4.36-26.24l-59.01-29.51c0-14.23,6.54-25.98,19.68-35.26c13.1-9.32,30.75-13.93,53.02-13.93
		c21.47,0,39.57,5.21,54.35,15.57c14.78,10.37,22.12,27.77,22.12,52.17V778h48.65V576.36c0-24.4-5.75-44.18-17.21-59.31
		C716.46,501.97,701.28,490.87,682.34,483.72z"/>
</g>
</svg>
