<?xml version="1.0" encoding="utf-8"?>
<!-- Generator: Adobe Illustrator 30.2.1, SVG Export Plug-In . SVG Version: 9.03 Build 0)  -->
<svg version="1.1" id="Layer_1" xmlns="http://www.w3.org/2000/svg" xmlns:xlink="http://www.w3.org/1999/xlink" x="0px" y="0px"
	 viewBox="0 0 913.88 1020.76" style="enable-background:new 0 0 913.88 1020.76;" xml:space="preserve">

<g>
	<path class="st0" d="M470.93,0H107.07C47.95,0,0,47.91,0,107.02v363.91c0,59.11,47.95,107.02,107.07,107.02h14.78v99.93
		c0,10.16,8.33,17.11,17.15,17.11c3.72,0,7.49-1.24,10.77-3.92l138.21-113.12h77.66v-29.76h-88.32l-8.24,6.75L151.6,651.1V548.19
		h-44.53c-42.65,0-77.32-34.66-77.32-77.26V107.02c0-42.6,34.67-77.26,77.32-77.26h363.86c42.64,0,77.31,34.66,77.31,77.26v248.51
		h29.75V107.02C577.99,47.91,530.04,0,470.93,0z"/>
	<path class="st0" d="M806.86,325.77H548.24v29.76h258.62c42.68,0,77.27,34.59,77.27,77.26V796.7c0,42.67-34.59,77.27-77.27,77.27
		h-44.58v102.95L644.8,880.71l-8.24-6.74H442.95c-42.52,0-77.31-34.8-77.31-77.32V548.19h-29.75V796.7
		c0,59.11,47.91,107.02,107.02,107.02h183.04l138.16,113.12c3.33,2.73,7.1,3.92,10.77,3.92c8.82,0,17.15-6.94,17.15-17.11v-99.93
		h14.83c59.11,0,107.02-47.91,107.02-107.02V432.79C913.88,373.69,865.97,325.77,806.86,325.77z"/>
	<path class="st1" d="M514.12,534.95c0.67-0.44,1.34-0.92,2.01-1.4c-0.85,0.64-1.72,1.24-2.61,1.82
		C513.72,535.24,513.92,535.1,514.12,534.95z"/>
	<path class="st1" d="M537.43,510.26c0.14-0.22,0.28-0.44,0.41-0.67c-0.16,0.29-0.33,0.58-0.5,0.86
		C537.37,510.39,537.4,510.32,537.43,510.26z"/>
	<path class="st1" d="M541.49,502.42c0.11-0.22,0.22-0.44,0.32-0.67c-0.11,0.28-0.23,0.55-0.36,0.82
		C541.47,502.52,541.48,502.47,541.49,502.42z"/>
	<path class="st1" d="M543.72,496.95c-0.5,1.4-1.04,2.77-1.62,4.13c0.19-0.46,0.36-0.92,0.54-1.39
		C543.02,498.79,543.37,497.87,543.72,496.95z"/>
	<path class="st0" d="M403.78,366.24l-10.67-28.17l-78.7-209.03h-50.38L141.98,451.89h50.43l34.22-92.74h124.28l4.47,12.15
		l13.98,37.84l15.77,42.75h50.88L403.78,366.24z M241.06,316.8l32.39-90.51c1.19-3.57,2.73-8.33,4.51-14.18
		c1.79-5.85,3.67-12.3,5.65-19.34c1.94-7.05,3.67-13.59,5.16-19.59c1.19,4.51,2.83,10.26,4.96,17.35c2.08,7.05,4.27,13.94,6.5,20.68
		c2.28,6.75,3.87,11.81,4.76,15.08l32.38,90.51H241.06z"/>
	<g>
		<path class="st1" d="M503.55,540.97c0.51-0.24,1.01-0.48,1.5-0.72c-0.2,0.11-0.4,0.21-0.6,0.31
			C504.15,540.7,503.85,540.84,503.55,540.97z"/>
		<path class="st1" d="M545.31,491.96c-0.18,0.65-0.36,1.29-0.54,1.93c-0.24,0.73-0.48,1.45-0.74,2.16
			C544.5,494.71,544.93,493.34,545.31,491.96z"/>
	</g>
	<path class="st0" d="M727.96,517.05c-11.5-15.08-26.68-26.18-45.62-33.33c-18.95-7.09-39.53-10.66-61.75-10.66
		c-15.62,0-29.9,1.54-42.84,4.61c-8.19,1.94-15.87,4.52-23.01,7.69c-3.08,1.39-6,2.83-8.83,4.36
		c-14.18,7.49-25.34,16.82-33.53,27.88c-5.95,8.03-10.11,16.36-12.44,24.94c-1.54,5.7-2.33,11.51-2.33,17.46v18l60.1,22.96
		l-0.54,1.64c-15.68,4.01-28.62,11.2-38.79,21.57c-10.21,10.41-15.32,27.08-15.32,50.04V778h48.65V674.21
		c0-19.34,5.01-33.43,15.03-42.35c10.01-8.93,21.77-13.39,35.26-13.39l4.36-26.24l-59.01-29.51c0-14.23,6.54-25.98,19.68-35.26
		c13.1-9.32,30.75-13.93,53.02-13.93c21.47,0,39.57,5.21,54.35,15.57c14.78,10.37,22.12,27.77,22.12,52.17V778h48.65V576.36
		C745.17,551.96,739.42,532.18,727.96,517.05z M504.45,540.56c-0.3,0.14-0.6,0.28-0.9,0.41c0.51-0.24,1.01-0.48,1.5-0.72
		C504.85,540.36,504.65,540.46,504.45,540.56z M513.52,535.37c0.2-0.13,0.4-0.27,0.6-0.42c0.67-0.44,1.34-0.92,2.01-1.4
		C515.28,534.19,514.41,534.79,513.52,535.37z M537.34,510.45c0.03-0.06,0.06-0.13,0.09-0.19c0.14-0.22,0.28-0.44,0.41-0.67
		C537.68,509.88,537.51,510.17,537.34,510.45z M541.45,502.57c0.02-0.05,0.03-0.1,0.04-0.15c0.11-0.22,0.22-0.44,0.32-0.67
		C541.7,502.03,541.58,502.3,541.45,502.57z M542.1,501.08c0.19-0.46,0.36-0.92,0.54-1.39c0.38-0.9,0.73-1.82,1.08-2.74
		C543.22,498.35,542.68,499.72,542.1,501.08z M544.77,493.89c-0.24,0.73-0.48,1.45-0.74,2.16c0.47-1.34,0.9-2.71,1.28-4.09
		C545.13,492.61,544.95,493.25,544.77,493.89z"/>
	<path class="st2" d="M503.55,540.97c0.51-0.24,1.01-0.48,1.5-0.72c-0.2,0.11-0.4,0.21-0.6,0.31
		C504.15,540.7,503.85,540.84,503.55,540.97z"/>
	<path class="st2" d="M514.12,534.95c0.67-0.44,1.34-0.92,2.01-1.4c-0.85,0.64-1.72,1.24-2.61,1.82
		C513.72,535.24,513.92,535.1,514.12,534.95z"/>
	<path class="st2" d="M537.43,510.26c0.14-0.22,0.28-0.44,0.41-0.67c-0.16,0.29-0.33,0.58-0.5,0.86
		C537.37,510.39,537.4,510.32,537.43,510.26z"/>
	<path class="st2" d="M541.49,502.42c0.11-0.22,0.22-0.44,0.32-0.67c-0.11,0.28-0.23,0.55-0.36,0.82
		C541.47,502.52,541.48,502.47,541.49,502.42z"/>
	<path class="st2" d="M542.64,499.69c0.38-0.9,0.73-1.82,1.08-2.74c-0.5,1.4-1.04,2.77-1.62,4.13
		C542.29,500.62,542.46,500.16,542.64,499.69z"/>
	<path class="st2" d="M545.31,491.96c-0.18,0.65-0.36,1.29-0.54,1.93c-0.24,0.73-0.48,1.45-0.74,2.16
		C544.5,494.71,544.93,493.34,545.31,491.96z"/>
</g>
</svg>
