<svg preserveAspectRatio="none" overflow="visible" style="display: block;" width="397.6" height="385.36" viewBox="0 0 397.6 385.36" fill="none" xmlns="http://www.w3.org/2000/svg">
<g id="Layer_1" clip-path="url(#clip0_0_8)">
<path id="Vector" d="M36.52 249.75C34.8 240.16 33.93 230.31 33.93 220.48C33.93 186.01 44.46 152.99 64.37 125C83.85 97.62 110.76 77.07 142.19 65.58L144.25 71.21C113.97 82.28 88.04 102.09 69.26 128.48C50.07 155.45 39.93 187.26 39.93 220.48C39.93 229.95 40.77 239.45 42.43 248.69L36.52 249.75Z" fill="url(#paint0_linear_0_8)"/>
<path id="Vector_2" d="M198.82 385.36C159.85 385.36 122.04 371.51 92.34 346.37L96.22 341.79C124.83 366.02 161.27 379.36 198.82 379.36C236.37 379.36 272.81 366.02 301.42 341.79L305.3 346.37C275.6 371.51 237.79 385.36 198.82 385.36Z" fill="#CEA872"/>
<path id="Vector_3" d="M361.11 249.75L355.2 248.69C356.86 239.45 357.7 229.96 357.7 220.48C357.7 187.26 347.56 155.45 328.37 128.48C309.59 102.09 283.66 82.29 253.38 71.21L255.44 65.58C286.87 77.07 313.77 97.62 333.26 125C353.18 152.99 363.7 186.01 363.7 220.48C363.7 230.31 362.83 240.15 361.11 249.75Z" fill="#CEA872"/>
<path id="Vector_4" d="M198.82 117.19C166.51 117.19 140.22 90.9 140.22 58.59C140.22 26.28 166.51 0 198.82 0C231.13 0 257.42 26.29 257.42 58.6C257.42 90.91 231.13 117.2 198.82 117.2V117.19ZM198.82 6C169.82 6 146.22 29.59 146.22 58.6C146.22 87.61 169.81 111.2 198.82 111.2C227.83 111.2 251.42 87.61 251.42 58.6C251.42 29.59 227.82 6 198.82 6Z" fill="#CEA872"/>
<path id="Vector_5" d="M58.72 360.04C53.63 360.04 48.51 359.37 43.46 358.02C28.34 353.97 15.71 344.27 7.88 330.72C0.05 317.17 -2.02 301.37 2.03 286.26C6.08 271.14 15.78 258.51 29.33 250.68C57.31 234.52 93.22 244.15 109.37 272.13C117.2 285.68 119.27 301.48 115.22 316.59C111.17 331.71 101.47 344.34 87.92 352.17C78.89 357.38 68.87 360.05 58.72 360.05V360.04ZM58.54 248.8C49.43 248.8 40.43 251.19 32.33 255.87C20.16 262.9 11.46 274.24 7.82 287.81C4.18 301.38 6.05 315.55 13.07 327.72C20.09 339.89 31.44 348.59 45.01 352.23C58.58 355.87 72.75 354 84.92 346.98C97.09 339.96 105.79 328.61 109.43 315.04C113.07 301.47 111.2 287.3 104.18 275.13C97.16 262.96 85.81 254.26 72.24 250.62C67.71 249.41 63.11 248.81 58.54 248.81V248.8Z" fill="#CEA872"/>
<path id="Vector_6" d="M338.92 360.04C328.77 360.04 318.75 357.38 309.72 352.16C296.17 344.33 286.47 331.7 282.42 316.58C278.37 301.46 280.45 285.67 288.27 272.12C304.42 244.14 340.33 234.51 368.31 250.67C396.29 266.82 405.91 302.73 389.76 330.71C381.93 344.26 369.3 353.96 354.18 358.01C349.13 359.36 344.01 360.03 338.92 360.03V360.04ZM339.1 248.84C320.91 248.84 303.19 258.27 293.46 275.13C286.44 287.3 284.57 301.47 288.21 315.04C291.85 328.61 300.55 339.95 312.72 346.98C324.89 354 339.06 355.87 352.63 352.23C366.2 348.59 377.54 339.89 384.57 327.72C391.6 315.55 393.46 301.38 389.82 287.81C386.18 274.24 377.48 262.9 365.32 255.87C357.06 251.1 348.03 248.83 339.11 248.83L339.1 248.84Z" fill="#CEA872"/>
<path id="Vector_7" d="M177.04 44.95C179.27 41.04 182.32 37.99 186.18 35.81C190.04 33.63 194.38 32.53 199.18 32.53C204.8 32.53 209.72 33.97 213.94 36.85C218.16 39.73 221.12 43.71 222.8 48.8H211.21C210.06 46.4 208.44 44.6 206.35 43.4C204.26 42.2 201.85 41.6 199.11 41.6C196.18 41.6 193.58 42.28 191.3 43.65C189.02 45.02 187.24 46.95 185.97 49.45C184.7 51.95 184.06 54.87 184.06 58.23C184.06 61.59 184.7 64.46 185.97 66.98C187.24 69.5 189.02 71.44 191.3 72.81C193.58 74.18 196.18 74.86 199.11 74.86C201.85 74.86 204.26 74.25 206.35 73.02C208.44 71.8 210.06 69.98 211.21 67.58H222.8C221.12 72.72 218.18 76.71 213.98 79.57C209.78 82.43 204.85 83.85 199.18 83.85C194.38 83.85 190.05 82.76 186.18 80.57C182.32 78.39 179.27 75.35 177.04 71.46C174.81 67.57 173.69 63.16 173.69 58.21C173.69 53.26 174.81 48.84 177.04 44.93V44.95Z" fill="#CEA872"/>
<path id="Vector_8" d="M348.91 316.75H328.89L325.58 326.33H315L333.07 276H344.81L362.88 326.33H352.22L348.91 316.75ZM346.17 308.68L338.9 287.66L331.63 308.68H346.17Z" fill="#CEA872"/>
<path id="Vector_9" d="M77.86 276V284.14H64.47V326.26H54.39V284.14H41V276H77.86Z" fill="#CEA872"/>
</g>
<defs>
<linearGradient id="paint0_linear_0_8" x1="89.09" y1="249.75" x2="89.09" y2="65.58" gradientUnits="userSpaceOnUse">
<stop offset="0.418269" stop-color="#E5E5E5"/>
<stop offset="1" stop-color="#33783B"/>
</linearGradient>
<clipPath id="clip0_0_8">
<rect width="397.6" height="385.36" fill="white"/>
</clipPath>
</defs>
</svg>
