<?xml version="1.0" encoding="utf-8"?>
<!-- Generator: Adobe Illustrator 30.3.0, SVG Export Plug-In . SVG Version: 9.03 Build 0)  -->
<svg version="1.1" id="Layer_1" xmlns="http://www.w3.org/2000/svg" xmlns:xlink="http://www.w3.org/1999/xlink" x="0px" y="0px"
	 viewBox="0 0 1080 1080" style="enable-background:new 0 0 1080 1080;" xml:space="preserve">
<style type="text/css">
	.st0{fill:#FBEF65;}
</style>
<path class="st0" d="M214.99,428.64c4.89,5.93,0.88,14.93-5.83,13.2c-47.81-12.36-86.62-40.06-105.55-80.42
	c-38.74-82.82,20.81-187.65,133.06-234.19c75.82-31.43,156.28-28.21,212.47,2.71c6.93,3.81,5.5,15.33-1.89,15.09
	c-37.49-1.2-77.67,5.81-116.64,21.96c-62.38,25.86-11.06,142.78-33.07,190.86c-17.6,38.45-117.2,6.53-99.99,43.33
	C202.22,411.11,208.08,420.28,214.99,428.64z M1045.59,349.32c-4.7-39.08-187.49-34.18-262.45-53.61
	c-47.14-12.22-77.98-40.05-111.77-64.77c-37.76-27.63-63.51-53.42-86.09-66.37c-38.75-22.22-71.16-27.39-93.81-27.02
	c-8.71,0.14-9.66,14.28-1.21,17.91c16.38,7.05,36.68,17.77,56.27,33.41c43.43,34.67,73.72,84.89,99.47,108.45
	c11.85,10.84,31.44,29.11,46.06,43.89c9.24,9.34,19.11,17.61,19.14,31.13l3.22,132.85c0.02,8.44,5.98,15.68,13.11,15.97
	c24.03,0.98,67.37-54.91,133.82-115.54c10.24-9.34,27.3-22.14,38.11-16.08c2.13,1.19,3.51,3.05,4.36,4.62
	c5.17,9.54-40.54,48.88-59.75,73.31c-2.98,3.78,1.04,10.11,5.22,8.23C902.23,451.94,1049.44,381.31,1045.59,349.32z M421.14,363.83
	c28.55,19.07,74.79,10.67,103.27-18.77c28.49-29.44,26.35-63.96-2.2-83.03c-28.55-19.07-72.7-15.48-101.19,13.96
	C392.53,305.43,392.59,344.75,421.14,363.83z M786.97,273.78c28.55,19.07,74.79,10.67,103.27-18.77s26.35-63.96-2.2-83.03
	c-28.55-19.07-72.7-15.48-101.19,13.96C758.37,215.38,758.42,254.71,786.97,273.78z M165.76,55.78
	C137.21,36.71,93.06,40.3,64.57,69.74c-28.49,29.44-28.43,68.77,0.12,87.84s74.79,10.67,103.27-18.77
	C196.44,109.37,194.31,74.85,165.76,55.78z M664.29,770.85c-0.98-0.94-2.03-1.82-3.12-2.66l0.23,0.07c0,0-20.94-17.81-64.92-30.18
	c-11.09-3.12-21.79,4.28-23.49,16.88c-0.64,4.75-1.89,9.83-4.12,14.76c-16.79,37.16-110.56,88.64-90.32,107.93
	c20.24,19.29,131.16-19.42,163.62-38.08C674.63,820.91,684.53,790.14,664.29,770.85z M729.01,546.71
	C729.01,546.71,729.01,546.71,729.01,546.71c-37-16.02-53.92-41.61-77.51-63.94c-31.61-29.92-50.52-48.47-58.75-56.63
	c-3.44-3.41-7.19-6.45-11.22-8.94c-0.02-0.01-0.04-0.03-0.07-0.04c-1.8-1.11-3.63-2.18-5.48-3.24
	c-34.23-19.45-72.29-23.82-105.47-13.86c-26.2,7.86-62.04,21.72-97.77,45.38c-35.56,23.54-85.61,16.69-121.64,6.65
	c-14.35-4-20.93,14.15-8.85,24.44c26.13,22.26,66.45,45.49,121.51,46.5l1.25,0.02c17.59,0.32,30.2,22.53,20.67,36.38
	c-14.59,21.21-22.82,31.2-38.48,59.31c-10.08,18.02-2.46,43.86,16.69,57.75c64.63,46.92,77.32,53.56,59.32,93.61
	c-0.69,1.54-1.59,2.89-2.65,4.14c-10.94,12.79-39.39,63.21-45.59,75.44c-2.35,4.6-4.44,9.37-6.22,14.3
	c-15.4,42.54-35.06,168.89-3.99,172.01c23.82,2.39,58.14-79.31,80.14-136.38c9.87-25.62,24.11-48.54,42.18-67.77
	c36.07-38.36,63.14-53.85,71.86-89.42c7.86-32.12,8.74-69.93-0.14-103.27c-2.45-9.19,7.86-37.24,16.37-57.91
	c5.51-13.39,20.43-18.72,34.94-12.4c40.45,17.61,120.44,47.85,160.68,31.57c0.23-0.09,0.46-0.19,0.69-0.28l0,0l0,0
	c0,0,54.23-13.4,66.43-80.92C850.14,451.68,796.42,572.97,729.01,546.71z"/>
</svg>
