<?xml version="1.0" encoding="utf-8"?>
<!-- Generator: Adobe Illustrator 30.3.0, SVG Export Plug-In . SVG Version: 9.03 Build 0)  -->
<svg version="1.1" id="Layer_1" xmlns="http://www.w3.org/2000/svg" xmlns:xlink="http://www.w3.org/1999/xlink" x="0px" y="0px"
	 viewBox="0 0 1080 1080" style="enable-background:new 0 0 1080 1080;" xml:space="preserve">
<style type="text/css">
	.st0{fill:#F3F4F5;}
</style>
<path class="st0" d="M580.69,1030.4c-56.05-0.76-104.18-15.36-153.83-36.98c-38.72-16.86-77.25-36.37-103.49-72.43
	c-17.31-23.78-59.89-149.17-67.41-179.41l-24.72-99.46c-4.5-18.11-2.48-63.35,3.02-80.9c9.33-29.79,32.97-58.77,57.3-76.82
	l51.72-38.38c38.69-28.71,92.9-26.63,140.32-27.88c103.89-2.74,205,11.88,299.08,56.13c18.78,8.83,38.1,31.53,50.93,45
	c20.03,21.02,7.8,44.25,6.71,66.75c-2.8,57.86-4.59,114.07-4.2,172.09c0.29,44.06,3.16,149.96-32.64,184.21
	c-22.64,21.66-49.72,40.19-76.54,59.09C685.08,1030.91,631.81,1031.1,580.69,1030.4z M531.32,875.92
	c6.16-29.22,36.74-33.27,58.43-35.17c30.22-2.65,58.01-4.26,85.79,6.77c21.03,8.34,28.28,27.01,25.4,51.57
	c38.65,1.26,60.11-31.2,94.46,15.75l24.5-49.62l-15.21-29.55l-31.3,12.87c-33.59,13.81-66.57,8.25-87.73-20.8
	c-17.89-24.56-23.54-66.36,5.16-85.9c25.5-17.36,61.96-13.78,92.4-15.53c-2.51-14.63-10.22-35.59-2.06-48.43
	c5.33-8.38,20.71-13.29,31.75-17.43l5.33-71.12c1.11-14.81,7.04-36.38,1.25-49.03c-16.83-36.75-49.6-53.86-84.81-65.47
	c-18.39-6.06-35.87-13.57-54.56-18.21c-81.79-20.3-165.19-25.88-249.53-19.08c-22.23,1.79-47.47,4.94-65.76,15.54
	c-39.26,22.75-101.34,66.51-110.06,110.59c-3.37,17.02-5.83,35.82-6.12,50.52c-0.15,7.98,17.22,86.09,25.87,105.39
	c22.76-19.8,56.48-17.89,71.59,9.15c8.79,15.73,7.1,39.47,5.47,57.66c40.83-18.38,61.1-20.34,107.93-14.71
	c23.46,2.82,39.7,29.09,29.36,50.24c-19.93,40.76-78.69,33.3-69.31,47.5c10.26,15.52,58.01,26.09,40.11,57.71
	c-9.75,17.23-29.72,25.15-48.98,36.19l47.53,18.99c23.46-52.1,63.76-39.92,107.01-48.47C547.77,917.25,526.1,900.7,531.32,875.92z
	 M338.95,828.15c-11.4-5.13-21.49-5.01-32.68-4.65l19.01,47.73c10.58-3.91,21.44-10.78,23.8-18.19
	C350.99,847.03,344.85,830.81,338.95,828.15z M688.27,973.68c-21.81-21.12-57.48-10.42-78.64,4.06
	C621.38,1014.29,700.54,989.92,688.27,973.68z M528.8,371.27c-0.87,2.88,6.87,15.61,8.83,13.26l9.56-11.5l33.52-19.8
	c3.82-2.26,7.2-14.11,5.76-18.12c-1.15-3.2-9.18-7.34-12.75-7.34l-111.73,0.08c-7.56,0.01-24-9.58-22.35-16.99
	c13.39-13.97,33.88-25.04,52.79-30.44c91.65-26.14,179.59-55.05,267.93-91.59c22.2-9.18,103.15-43.29,85.82-79.76
	c-37.29-78.49-235.7-55.68-307.4-49.03c-61.76,5.72-119.44,17.92-177.93,38.4c-23.07,8.08-94.86,39.13-70.18,72.6l11.44-16.77
	c28.38-41.6,150.02-65.5,198.63-71.36c82.07-9.89,245.82-30.79,312.98,15.64c5.4,3.73,12.04,11.94,12.09,16.68
	c0.58,48.76-270.37,127.47-319.04,141.95c-27.04,8.04-51.62,17.47-75.6,30.92c-9.28,5.21-14.79,27.07-10.21,34.75
	c22.87,38.29,107.82,17.05,145.39,19.55C550.71,351.1,532.09,360.43,528.8,371.27z M716.06,706.71
	c-108.63,68.79-242.97,38.9-356.88,3.01c-26.18-8.25-50.84-22.05-73.69-37.89c-13.35-9.25-20.86-28.75-22.73-45.36
	c-3.37-29.93,5.86-57.66,18.39-85.72c9.78-21.89,31.69-38.01,53.32-48.97l45.87-23.24c26.32-13.33,60.29-13.8,89.82-17.82
	c20.98-2.86,38.73,1.35,60.2,2.49l93.17,4.98c25.42,1.36,139.9,31.75,167.61,65.49c18.98,23.1,17.71,44.57,15.24,69.98
	c-3.72,38.23-18.49,67.55-51.82,88.65L716.06,706.71z M684.51,530.29c38.28,3.95,71.63,15.11,105.26,32.46
	c-6.89-23.62-21.4-45.4-42.68-53.39c-46.82-17.59-96.96-34.44-147.64-37.98l-112.21-7.83c-52.18-3.64-105.14,24.38-150.97,46.55
	c-40.44,19.56-64.97,66.38-53.91,109.86c47.13-95.42,241.4-101.92,334.04-98.66C639.03,522.11,661.85,527.95,684.51,530.29z
	 M416.09,614.68c-7.45,4.17-21.23,16.29-11.93,25.69c13.3,13.43,59.72,12.21,45.54,32.34c-15.29,21.7-81.76-4.51-105.4-11.38
	c-22.54-6.55-36.45-13-36.85-46.32c-6.96,6.7-15.89,19.92-15.97,28.54c-0.11,11.85,11.62,18.07,21,23.5
	c58.75,34,149.96,53.64,217.64,61.92c54.37,6.66,121.34-7.29,168.96-34.71c48.3-27.8,89.11-45.43,88.49-103.24
	c-29.45-31.25-69.89-41.03-111.23-45.61c-29.17-3.23-59.84-14.34-88.42-8.56c-8.27,1.67-38.64,10.11-44.59,16.34
	c-9.45,9.89,41.21,1.28,56.64,17.22c-8.63,20.44-28.4,7.79-43.57,12.01c13.02,2.85,20.81,13.81,23.69,27.11l70.47,4.85
	c7.43,0.51,25.94,4.11,28.18,10.78c3.2,9.53-9.26,27.19-17.74,30.69c-37.08,15.31-74.63,9.05-112.94,10.89
	c-28.33,1.36-62.3,5.11-88.21-5.18c-5.28-2.1-10.49-15.84-6.46-18.63c3.22-2.23,12.53-3.65,16.58-2.85l27.44,5.39l-6.01-29.7
	l-45.33-1.5c-3.88-1.41-10.75-10.35-14.12-8.46L416.09,614.68z M401.48,586.82l85.41-18.08c-24.3-27.58-143.75-4.39-120.09,43.29
	C377.43,600.62,388.02,589.67,401.48,586.82z M566.65,630.71c-14.64-9.2-21.37-13.9-30.06-22.13c-5.64-5.34-24.78,9.89-20.57,17.67
	C525.95,644.59,557.29,643.94,566.65,630.71z M738.88,590.57c-25.83-42.67-129-35.05-122.69-8.03c5.23,22.38,42.55,6.9,49.19,5.29
	c16.21-3.92,37.06,12.86,53.61,20.73C724.94,611.4,741.11,597,738.88,590.57z M624.31,712.99c19.9-0.45,39.02-19.41,54.97-33.12
	c-21.32-18.48-38.08-3.15-57.56,4.72c-28.06,11.32-69.07-7.24-75.14,13.9c-1.2,4.19,5.56,16.13,9.94,16.03L624.31,712.99z
	 M718.44,625.27c-5.98,3.81-11.77,19.73-5.76,24.46c16.53,12.99,36.82-10.7,34.56-26.6C741.72,617.36,725.55,620.75,718.44,625.27z"
	/>
</svg>
